HIERARCHY
ROOT Hips
{
 OFFSET 0.000000 0.000000 0.000000
 CHANNELS 6 Xposition Yposition Zposition Yrotation Xrotation Zrotation
 JOINT Chest
 {
  OFFSET 0.000000 9.585900 0.002600
  CHANNELS 3 Yrotation Xrotation Zrotation
  JOINT Chest2
  {
   OFFSET 0.000000 9.601200 -0.005300
   CHANNELS 3 Yrotation Xrotation Zrotation
   JOINT Chest3
   {
    OFFSET 0.000000 9.561800 0.000000
    CHANNELS 3 Yrotation Xrotation Zrotation
    JOINT Chest4
    {
     OFFSET 0.000000 9.552100 0.000000
     CHANNELS 3 Yrotation Xrotation Zrotation
     JOINT Neck
     {
      OFFSET 0.000000 14.453000 0.000000
      CHANNELS 3 Yrotation Xrotation Zrotation
      JOINT Head
      {
       OFFSET 0.000000 8.936500 -0.011300
       CHANNELS 3 Yrotation Xrotation Zrotation
       End Site
       {
        OFFSET 0.000000 17.073600 -0.006000
       }
      }
     }
     JOINT RightCollar
     {
      OFFSET -2.921100 9.558500 0.000000
      CHANNELS 3 Yrotation Xrotation Zrotation
      JOINT RightShoulder
      {
       OFFSET -13.519700 0.000000 0.000000
       CHANNELS 3 Yrotation Xrotation Zrotation
       JOINT RightElbow
       {
        OFFSET 0.000000 -29.696600 0.000000
        CHANNELS 3 Yrotation Xrotation Zrotation
        JOINT RightWrist
        {
         OFFSET 0.000000 -24.004700 0.000000
         CHANNELS 3 Yrotation Xrotation Zrotation
         End Site
         {
          OFFSET 0.000000 -17.728500 0.000000
         }
        }
       }
      }
     }
     JOINT LeftCollar
     {
      OFFSET 2.921100 9.558500 0.000000
      CHANNELS 3 Yrotation Xrotation Zrotation
      JOINT LeftShoulder
      {
       OFFSET 13.519700 0.000000 0.000000
       CHANNELS 3 Yrotation Xrotation Zrotation
       JOINT LeftElbow
       {
        OFFSET 0.000000 -29.696600 0.000000
        CHANNELS 3 Yrotation Xrotation Zrotation
        JOINT LeftWrist
        {
         OFFSET 0.000000 -24.004700 0.000000
         CHANNELS 3 Yrotation Xrotation Zrotation
         End Site
         {
          OFFSET 0.000000 -17.728500 0.000000
         }
        }
       }
      }
     }
    }
   }
  }
 }
 JOINT RightHip
 {
  OFFSET -7.771700 -0.012900 -0.001300
  CHANNELS 3 Yrotation Xrotation Zrotation
  JOINT RightKnee
  {
   OFFSET 0.000000 -40.869800 0.001200
   CHANNELS 3 Yrotation Xrotation Zrotation
   JOINT RightAnkle
   {
    OFFSET 0.000000 -39.717900 0.002100
    CHANNELS 3 Yrotation Xrotation Zrotation
    JOINT RightToe
    {
     OFFSET 0.000000 -4.965400 11.033500
     CHANNELS 3 Yrotation Xrotation Zrotation
     End Site
     {
      OFFSET 0.000000 -1.423100 5.872300
     }
    }
   }
  }
 }
 JOINT LeftHip
 {
  OFFSET 7.771700 -0.012900 -0.001300
  CHANNELS 3 Yrotation Xrotation Zrotation
  JOINT LeftKnee
  {
   OFFSET 0.000000 -40.869800 0.001200
   CHANNELS 3 Yrotation Xrotation Zrotation
   JOINT LeftAnkle
   {
    OFFSET 0.000000 -39.717900 0.002100
    CHANNELS 3 Yrotation Xrotation Zrotation
    JOINT LeftToe
    {
     OFFSET 0.000000 -4.965400 11.033500
     CHANNELS 3 Yrotation Xrotation Zrotation
     End Site
     {
      OFFSET 0.000000 -1.423100 5.872300
     }
    }
   }
  }
 }
}
MOTION
Frames: 7
Frame Time: 0.008333
0.000000 85.388000 0.000000 0.000000 -5.767877 0.000000 0.000000 11.653817 0.000000 0.000000 -5.885947 0.000000 0.000000 -0.000000 0.000000 0.000000 -0.000000 0.000000 0.000000 12.528835 0.000000 0.000000 0.711642 0.000000 0.000000 -0.000000 0.000000 0.000000 0.000000 -90.000000 0.000000 -2.309062 0.000000 0.000000 2.309062 0.000000 0.000000 -0.000000 0.000000 0.000000 -0.000000 90.000000 0.000000 -2.309062 0.000000 0.000000 2.309062 0.000000 0.000000 8.520406 0.000000 0.000000 1.905762 0.000000 -0.000000 -4.658285 0.000000 0.000000 -0.000000 0.000000 0.000000 8.520406 0.000000 0.000000 1.905762 0.000000 -0.000000 -4.658285 0.000000 0.000000 -0.000000 0.000000
-140.771047 58.437709 115.358051 179.195390 -34.368099 -1.026063 2.042732 21.304915 2.523774 0.184790 2.846664 0.215655 0.405567 4.694740 0.447821 1.757232 18.212887 1.923108 3.320157 16.348183 -7.008307 8.576334 -4.705884 -14.144260 0.375362 -1.916273 -0.794759 -1.764903 -6.690102 -11.280858 156.025276 -76.073214 -132.082683 8.208772 -13.598880 -43.557482 -4.153108 -0.498467 -0.084768 16.660820 0.861501 -2.681467 78.458421 -78.213664 -107.954311 0.474370 -7.232544 25.811925 3.406915 -39.568825 -8.037999 -9.055450 65.079482 -5.703014 5.353481 25.052532 1.230093 -0.214315 -15.939421 1.610074 -5.786844 -38.122925 -1.797396 24.251250 63.172164 21.612525 -15.528832 7.254822 -1.108113 -0.114516 -0.227167 0.025804
-140.780943 58.434297 115.350223 179.233554 -34.343968 -1.012370 2.019089 21.295091 2.513311 0.246494 2.887102 0.283219 0.369600 4.674326 0.423009 1.741178 18.204859 1.932458 3.453561 16.363591 -7.092757 8.848383 -4.645690 -14.343538 0.402974 -1.970784 -0.793091 -1.702766 -6.764428 -11.387128 156.573608 -76.011055 -132.617945 8.156045 -13.496384 -43.408916 -4.169761 -0.546449 -0.101840 16.823633 0.892886 -2.441691 81.611077 -78.355345 -111.139142 0.453346 -7.508602 25.981616 3.449134 -39.599602 -8.110885 -9.001299 65.122068 -5.648766 5.345279 25.027501 1.260298 -0.221148 -15.942207 1.607910 -5.779261 -38.151666 -1.820297 24.232241 63.188374 21.554227 -15.544198 7.249300 -1.073218 -0.111813 -0.237545 0.013523
-140.792765 58.432015 115.338782 179.244441 -34.333319 -0.972375 2.011562 21.298270 2.490325 0.257411 2.900909 0.307467 0.378525 4.680099 0.440261 1.725741 18.196650 1.943187 3.584247 16.375999 -7.185476 9.118371 -4.589575 -14.557367 0.436937 -2.026564 -0.797273 -1.635137 -6.844381 -11.502003 157.209472 -75.947691 -133.222814 8.102002 -13.391537 -43.251774 -4.140727 -0.624861 -0.066522 16.931722 0.978095 -2.250874 84.789627 -78.422342 -114.354190 0.439165 -7.773395 26.151063 3.531637 -39.616550 -8.203181 -8.927455 65.168094 -5.570638 5.327738 24.999795 1.286057 -0.231480 -15.943718 1.611504 -5.749743 -38.167926 -1.863105 24.208887 63.224134 21.470896 -15.477795 7.229856 -0.991004 -0.168198 -0.243903 -0.014640
-140.803698 58.427216 115.329955 179.281793 -34.294201 -0.951113 1.998220 21.288238 2.497895 0.239900 2.892023 0.298224 0.379503 4.686113 0.456575 1.720141 18.193639 1.965779 3.714261 16.384409 -7.286127 9.390165 -4.539168 -14.785959 0.464028 -2.073542 -0.821892 -1.549712 -6.935538 -11.606604 157.925335 -75.872785 -133.893459 8.045813 -13.286830 -43.080528 -4.101539 -0.703059 -0.028271 17.033765 1.068380 -2.072026 87.873595 -78.413482 -117.491887 0.433113 -8.016017 26.320262 3.591758 -39.665077 -8.275831 -8.759043 65.224684 -5.435312 5.271694 24.957149 1.341432 -0.232264 -15.937672 1.607703 -5.749312 -38.213054 -1.903582 24.203149 63.243199 21.438123 -15.470773 7.205840 -0.967813 -0.185297 -0.240985 -0.023869
-140.807972 58.423423 115.319696 179.292044 -34.260893 -0.950313 2.012628 21.309317 2.575571 0.217803 2.843484 0.232132 0.383677 4.705484 0.493620 1.711602 18.190345 1.988145 3.843076 16.387973 -7.393530 9.662560 -4.496280 -15.026964 0.468617 -2.103187 -0.876873 -1.435775 -7.044341 -11.685791 158.700456 -75.779139 -134.609479 7.988117 -13.188640 -42.897710 -4.062822 -0.766537 -0.005267 17.149337 1.135939 -1.891579 90.765163 -78.334313 -120.464179 0.433211 -8.239322 26.486193 3.632360 -39.704130 -8.294265 -8.743827 65.257963 -5.429313 5.263538 24.930267 1.370039 -0.225651 -15.935979 1.608509 -5.745167 -38.253874 -1.897619 24.197918 63.271454 21.417093 -15.491245 7.186284 -0.956352 -0.182181 -0.247529 -0.028375
-140.808896 58.419771 115.309996 179.299669 -34.220880 -0.962645 2.011623 21.296628 2.621466 0.223070 2.844991 0.236230 0.373503 4.701701 0.499457 1.702563 18.187190 2.010684 3.967919 16.387984 -7.505938 9.929665 -4.458983 -15.276219 0.524456 -2.152666 -0.888826 -1.357252 -7.130869 -11.813713 159.501359 -75.662975 -135.337412 7.931222 -13.100502 -42.718194 -4.016966 -0.823253 0.019360 17.271365 1.189215 -1.724892 93.402040 -78.193575 -123.210871 0.430974 -8.448156 26.640376 3.646943 -39.750676 -8.285019 -8.768500 65.284063 -5.462269 5.262186 24.898433 1.385765 -0.212433 -15.925006 1.609628 -5.760011 -38.294466 -1.880475 24.216370 63.284635 21.424617 -15.470715 7.202001 -0.928716 -0.214930 -0.282517 -0.049597
